<svg width="17" height="16" viewBox="0 0 17 16" fill="none" xmlns="http://www.w3.org/2000/svg">
<path d="M3.9502 8H1.9502M3.9502 8C3.9502 8.53043 4.16091 9.03914 4.53598 9.41421C4.91105 9.78929 5.41976 10 5.9502 10C6.48063 10 6.98934 9.78929 7.36441 9.41421C7.73948 9.03914 7.9502 8.53043 7.9502 8M3.9502 8C3.9502 7.46957 4.16091 6.96086 4.53598 6.58579C4.91105 6.21071 5.41976 6 5.9502 6C6.48063 6 6.98934 6.21071 7.36441 6.58579C7.73948 6.96086 7.9502 7.46957 7.9502 8M14.9502 8H7.9502M14.9502 3H12.9502M12.9502 3C12.9502 3.53043 12.7395 4.03914 12.3644 4.41421C11.9893 4.78929 11.4806 5 10.9502 5C10.4198 5 9.91105 4.78929 9.53598 4.41421C9.16091 4.03914 8.9502 3.53043 8.9502 3M12.9502 3C12.9502 2.46957 12.7395 1.96086 12.3644 1.58579C11.9893 1.21071 11.4806 1 10.9502 1C10.4198 1 9.91105 1.21071 9.53598 1.58579C9.16091 1.96086 8.9502 2.46957 8.9502 3M8.9502 3H1.9502M14.9502 13H12.9502M12.9502 13C12.9502 13.5304 12.7395 14.0391 12.3644 14.4142C11.9893 14.7893 11.4806 15 10.9502 15C10.4198 15 9.91105 14.7893 9.53598 14.4142C9.16091 14.0391 8.9502 13.5304 8.9502 13M12.9502 13C12.9502 12.4696 12.7395 11.9609 12.3644 11.5858C11.9893 11.2107 11.4806 11 10.9502 11C10.4198 11 9.91105 11.2107 9.53598 11.5858C9.16091 11.9609 8.9502 12.4696 8.9502 13M8.9502 13H1.9502" stroke="#222222" stroke-width="1.5"/>
</svg>
