<svg width="13" height="12" viewBox="0 0 13 12" fill="none" xmlns="http://www.w3.org/2000/svg">
<path fill-rule="evenodd" clip-rule="evenodd" d="M6.10258 0.752481L4.55383 4.08248L0.856327 4.55873C0.784793 4.56767 0.717353 4.59704 0.662082 4.64332C0.60681 4.6896 0.56605 4.75084 0.544683 4.81969C0.523316 4.88854 0.522247 4.96209 0.541604 5.03153C0.560961 5.10097 0.599924 5.16336 0.653827 5.21123L3.39133 7.67498L2.65258 11.3687C2.63866 11.4394 2.64537 11.5125 2.67189 11.5794C2.69841 11.6463 2.74363 11.7042 2.80215 11.7461C2.86067 11.788 2.93001 11.8122 3.0019 11.8158C3.07379 11.8193 3.14519 11.8021 3.20758 11.7662L6.44008 9.89123L9.67633 11.7662C9.73871 11.8021 9.81011 11.8193 9.882 11.8158C9.95389 11.8122 10.0232 11.788 10.0818 11.7461C10.1403 11.7042 10.1855 11.6463 10.212 11.5794C10.2385 11.5125 10.2452 11.4394 10.2313 11.3687L9.49258 7.67498L12.2301 5.21123C12.2829 5.16291 12.3208 5.10048 12.3393 5.03132C12.3577 4.96215 12.356 4.88915 12.3343 4.82092C12.3126 4.7527 12.2719 4.69211 12.2169 4.64631C12.1618 4.60052 12.0949 4.57143 12.0238 4.56248L8.32633 4.08248L6.78133 0.752481C6.7515 0.68701 6.70346 0.631502 6.64296 0.592579C6.58245 0.553655 6.51202 0.532959 6.44008 0.532959C6.36813 0.532959 6.2977 0.553655 6.2372 0.592579C6.17669 0.631502 6.12866 0.68701 6.09883 0.752481H6.10258Z" fill="#222222"/>
</svg>
